# xmcd
#
# Track frame offsets:
#        150
#        6370
#        21302
#        47947
#        72250
#        106630
#        122195
#        137695
#        157650
#
# Disc length: 2466 seconds
#
# Revision: 0
# Processed by: cddbd v1.5.1PL0 Copyright (c) Steve Scherf et al.
# Submitted via: ExactAudioCopy v0.95b2
#
DISCID=7009a009
DTITLE=lab. - PIPER
DYEAR=2004
DGENRE=Rock
TTITLE0=PIPER
TTITLE1=ANTENNA
TTITLE2=SKY LOVE
TTITLE3=R.E.M.
TTITLE4=SLEEP IN THE WATER
TTITLE5=NIGHTIME BOYS
TTITLE6=SINCE YESTERDAY
TTITLE7=DUB NOTE
TTITLE8=SUNRISE BLOOM
EXTD=
EXTT0=
EXTT1=
EXTT2=
EXTT3=
EXTT4=
EXTT5=
EXTT6=
EXTT7=
EXTT8=
PLAYORDER=
